<mxfile host="app.diagrams.net" modified="2021-03-11T02:22:54.001Z" agent="5.0 (Macintosh; Intel Mac OS X 10_15_7) AppleWebKit/537.36 (KHTML, like Gecko) Chrome/88.0.4324.150 Safari/537.36" etag="9ye1CQXUjYRJy4J4XnL-" version="14.4.7" type="github">
  <diagram name="Page-1" id="74b105a0-9070-1c63-61bc-23e55f88626e">
    <mxGraphModel dx="988" dy="503" grid="1" gridSize="10" guides="1" tooltips="1" connect="1" arrows="1" fold="1" page="1" pageScale="1.5" pageWidth="1169" pageHeight="826" background="none" math="0" shadow="0">
      <root>
        <mxCell id="0" style=";html=1;" />
        <mxCell id="1" style=";html=1;" parent="0" />
        <mxCell id="J3t1SKIbdCMKoWFsVB5H-16" value="" style="rounded=0;whiteSpace=wrap;html=1;fillColor=#DEDFFF;" vertex="1" parent="1">
          <mxGeometry x="990" y="260" width="380" height="430" as="geometry" />
        </mxCell>
        <mxCell id="J3t1SKIbdCMKoWFsVB5H-15" value="" style="rounded=0;whiteSpace=wrap;html=1;fillColor=#D6FFD8;" vertex="1" parent="1">
          <mxGeometry x="740" y="260" width="220" height="340" as="geometry" />
        </mxCell>
        <mxCell id="J3t1SKIbdCMKoWFsVB5H-14" value="" style="rounded=0;whiteSpace=wrap;html=1;fillColor=#FFCFCF;" vertex="1" parent="1">
          <mxGeometry x="330" y="260" width="380" height="430" as="geometry" />
        </mxCell>
        <mxCell id="J3t1SKIbdCMKoWFsVB5H-9" value="&lt;span&gt;&lt;font style=&quot;font-size: 16px&quot;&gt;iOS QQ Native&lt;/font&gt;&lt;/span&gt;" style="text;html=1;resizable=0;autosize=1;align=center;verticalAlign=middle;points=[];fillColor=none;strokeColor=none;rounded=0;perimeterSpacing=2;" vertex="1" parent="1">
          <mxGeometry x="460" y="230" width="120" height="20" as="geometry" />
        </mxCell>
        <mxCell id="J3t1SKIbdCMKoWFsVB5H-10" value="&lt;span&gt;&lt;font style=&quot;font-size: 16px&quot;&gt;Flutter&lt;/font&gt;&lt;/span&gt;" style="text;html=1;resizable=0;autosize=1;align=center;verticalAlign=middle;points=[];fillColor=none;strokeColor=none;rounded=0;" vertex="1" parent="1">
          <mxGeometry x="820" y="230" width="60" height="20" as="geometry" />
        </mxCell>
        <mxCell id="J3t1SKIbdCMKoWFsVB5H-11" value="&lt;span&gt;&lt;font style=&quot;font-size: 16px&quot;&gt;Android QQ Native&lt;/font&gt;&lt;/span&gt;" style="text;html=1;resizable=0;autosize=1;align=center;verticalAlign=middle;points=[];fillColor=none;strokeColor=none;rounded=0;" vertex="1" parent="1">
          <mxGeometry x="1105" y="230" width="150" height="20" as="geometry" />
        </mxCell>
        <mxCell id="J3t1SKIbdCMKoWFsVB5H-19" style="edgeStyle=orthogonalEdgeStyle;rounded=0;orthogonalLoop=1;jettySize=auto;html=1;exitX=0.5;exitY=1;exitDx=0;exitDy=0;entryX=0.5;entryY=0;entryDx=0;entryDy=0;" edge="1" parent="1">
          <mxGeometry relative="1" as="geometry">
            <mxPoint x="801.5000000000002" y="540" as="sourcePoint" />
            <mxPoint x="540" y="590" as="targetPoint" />
            <Array as="points">
              <mxPoint x="802" y="550" />
              <mxPoint x="540" y="550" />
            </Array>
          </mxGeometry>
        </mxCell>
        <mxCell id="J3t1SKIbdCMKoWFsVB5H-39" style="edgeStyle=orthogonalEdgeStyle;rounded=0;orthogonalLoop=1;jettySize=auto;html=1;exitX=0.5;exitY=1;exitDx=0;exitDy=0;entryX=0.5;entryY=0;entryDx=0;entryDy=0;" edge="1" parent="1" target="J3t1SKIbdCMKoWFsVB5H-35">
          <mxGeometry relative="1" as="geometry">
            <mxPoint x="801.5000000000002" y="540" as="sourcePoint" />
            <Array as="points">
              <mxPoint x="802" y="550" />
              <mxPoint x="1050" y="550" />
            </Array>
          </mxGeometry>
        </mxCell>
        <mxCell id="J3t1SKIbdCMKoWFsVB5H-21" style="edgeStyle=orthogonalEdgeStyle;rounded=0;orthogonalLoop=1;jettySize=auto;html=1;exitX=0.5;exitY=1;exitDx=0;exitDy=0;entryX=0.5;entryY=0;entryDx=0;entryDy=0;" edge="1" parent="1" target="J3t1SKIbdCMKoWFsVB5H-32">
          <mxGeometry relative="1" as="geometry">
            <mxPoint x="898.4999999999998" y="540" as="sourcePoint" />
            <mxPoint x="640" y="590" as="targetPoint" />
            <Array as="points">
              <mxPoint x="897" y="540" />
              <mxPoint x="897" y="570" />
              <mxPoint x="650" y="570" />
            </Array>
          </mxGeometry>
        </mxCell>
        <mxCell id="J3t1SKIbdCMKoWFsVB5H-22" style="edgeStyle=orthogonalEdgeStyle;rounded=0;orthogonalLoop=1;jettySize=auto;html=1;exitX=0.5;exitY=1;exitDx=0;exitDy=0;" edge="1" parent="1">
          <mxGeometry relative="1" as="geometry">
            <mxPoint x="898.4999999999998" y="540" as="sourcePoint" />
            <mxPoint x="1160" y="590" as="targetPoint" />
            <Array as="points">
              <mxPoint x="897" y="570" />
              <mxPoint x="1160" y="570" />
            </Array>
          </mxGeometry>
        </mxCell>
        <mxCell id="J3t1SKIbdCMKoWFsVB5H-27" value="&lt;span&gt;TRTC(iOS)&lt;/span&gt;" style="rounded=0;whiteSpace=wrap;html=1;fillColor=#CCFFFF;" vertex="1" parent="1">
          <mxGeometry x="490" y="650" width="100" height="30" as="geometry" />
        </mxCell>
        <mxCell id="J3t1SKIbdCMKoWFsVB5H-29" style="edgeStyle=orthogonalEdgeStyle;rounded=0;orthogonalLoop=1;jettySize=auto;html=1;exitX=0.5;exitY=1;exitDx=0;exitDy=0;entryX=0.5;entryY=0;entryDx=0;entryDy=0;" edge="1" parent="1" source="J3t1SKIbdCMKoWFsVB5H-28" target="J3t1SKIbdCMKoWFsVB5H-27">
          <mxGeometry relative="1" as="geometry" />
        </mxCell>
        <mxCell id="J3t1SKIbdCMKoWFsVB5H-28" value="&lt;span&gt;TRTC Flutter Channel(iOS)&lt;/span&gt;" style="rounded=0;whiteSpace=wrap;html=1;fillColor=#33FFFF;" vertex="1" parent="1">
          <mxGeometry x="490" y="590" width="100" height="40" as="geometry" />
        </mxCell>
        <mxCell id="J3t1SKIbdCMKoWFsVB5H-30" value="&lt;span&gt;IMSDK(iOS)&lt;/span&gt;" style="rounded=0;whiteSpace=wrap;html=1;fillColor=#FFE6CC;" vertex="1" parent="1">
          <mxGeometry x="600" y="650" width="100" height="30" as="geometry" />
        </mxCell>
        <mxCell id="J3t1SKIbdCMKoWFsVB5H-31" style="edgeStyle=orthogonalEdgeStyle;rounded=0;orthogonalLoop=1;jettySize=auto;html=1;exitX=0.5;exitY=1;exitDx=0;exitDy=0;entryX=0.5;entryY=0;entryDx=0;entryDy=0;" edge="1" source="J3t1SKIbdCMKoWFsVB5H-32" target="J3t1SKIbdCMKoWFsVB5H-30" parent="1">
          <mxGeometry relative="1" as="geometry" />
        </mxCell>
        <mxCell id="J3t1SKIbdCMKoWFsVB5H-32" value="&lt;span&gt;IMSDK Flutter Channel(iOS)&lt;/span&gt;" style="rounded=0;whiteSpace=wrap;html=1;fillColor=#FFB366;" vertex="1" parent="1">
          <mxGeometry x="600" y="590" width="100" height="40" as="geometry" />
        </mxCell>
        <mxCell id="J3t1SKIbdCMKoWFsVB5H-33" value="&lt;span&gt;TRTC(&lt;/span&gt;Android&lt;span&gt;)&lt;/span&gt;" style="rounded=0;whiteSpace=wrap;html=1;fillColor=#CCFFFF;" vertex="1" parent="1">
          <mxGeometry x="1000" y="650" width="100" height="30" as="geometry" />
        </mxCell>
        <mxCell id="J3t1SKIbdCMKoWFsVB5H-34" style="edgeStyle=orthogonalEdgeStyle;rounded=0;orthogonalLoop=1;jettySize=auto;html=1;exitX=0.5;exitY=1;exitDx=0;exitDy=0;entryX=0.5;entryY=0;entryDx=0;entryDy=0;" edge="1" source="J3t1SKIbdCMKoWFsVB5H-35" target="J3t1SKIbdCMKoWFsVB5H-33" parent="1">
          <mxGeometry relative="1" as="geometry" />
        </mxCell>
        <mxCell id="J3t1SKIbdCMKoWFsVB5H-35" value="&lt;span&gt;TRTC Flutter Channel(Android)&lt;/span&gt;" style="rounded=0;whiteSpace=wrap;html=1;fillColor=#33FFFF;" vertex="1" parent="1">
          <mxGeometry x="1000" y="590" width="100" height="40" as="geometry" />
        </mxCell>
        <mxCell id="J3t1SKIbdCMKoWFsVB5H-36" value="&lt;span&gt;IMSDK(&lt;/span&gt;Android&lt;span&gt;)&lt;/span&gt;" style="rounded=0;whiteSpace=wrap;html=1;fillColor=#FFE6CC;" vertex="1" parent="1">
          <mxGeometry x="1110" y="650" width="100" height="30" as="geometry" />
        </mxCell>
        <mxCell id="J3t1SKIbdCMKoWFsVB5H-37" style="edgeStyle=orthogonalEdgeStyle;rounded=0;orthogonalLoop=1;jettySize=auto;html=1;exitX=0.5;exitY=1;exitDx=0;exitDy=0;entryX=0.5;entryY=0;entryDx=0;entryDy=0;" edge="1" source="J3t1SKIbdCMKoWFsVB5H-38" target="J3t1SKIbdCMKoWFsVB5H-36" parent="1">
          <mxGeometry relative="1" as="geometry" />
        </mxCell>
        <mxCell id="J3t1SKIbdCMKoWFsVB5H-38" value="&lt;span&gt;IMSDK Flutter Channel(&lt;/span&gt;Android&lt;span&gt;)&lt;/span&gt;" style="rounded=0;whiteSpace=wrap;html=1;fillColor=#FFB366;" vertex="1" parent="1">
          <mxGeometry x="1110" y="590" width="100" height="40" as="geometry" />
        </mxCell>
        <mxCell id="J3t1SKIbdCMKoWFsVB5H-41" value="&lt;span&gt;TRTC Flutter 插件&lt;/span&gt;" style="rounded=0;whiteSpace=wrap;html=1;fillColor=#66B2FF;" vertex="1" parent="1">
          <mxGeometry x="762" y="500" width="78" height="40" as="geometry" />
        </mxCell>
        <mxCell id="J3t1SKIbdCMKoWFsVB5H-42" value="IMSDK Flutter 插件" style="rounded=0;whiteSpace=wrap;html=1;fillColor=#FF8000;" vertex="1" parent="1">
          <mxGeometry x="860.5" y="500" width="78" height="40" as="geometry" />
        </mxCell>
        <mxCell id="J3t1SKIbdCMKoWFsVB5H-45" style="edgeStyle=orthogonalEdgeStyle;rounded=0;orthogonalLoop=1;jettySize=auto;html=1;exitX=0.5;exitY=1;exitDx=0;exitDy=0;entryX=0.5;entryY=0;entryDx=0;entryDy=0;" edge="1" parent="1" source="J3t1SKIbdCMKoWFsVB5H-43" target="J3t1SKIbdCMKoWFsVB5H-42">
          <mxGeometry relative="1" as="geometry" />
        </mxCell>
        <mxCell id="J3t1SKIbdCMKoWFsVB5H-46" style="edgeStyle=orthogonalEdgeStyle;rounded=0;orthogonalLoop=1;jettySize=auto;html=1;exitX=0.5;exitY=1;exitDx=0;exitDy=0;entryX=0.5;entryY=0;entryDx=0;entryDy=0;" edge="1" parent="1" source="J3t1SKIbdCMKoWFsVB5H-43" target="J3t1SKIbdCMKoWFsVB5H-41">
          <mxGeometry relative="1" as="geometry" />
        </mxCell>
        <mxCell id="J3t1SKIbdCMKoWFsVB5H-43" value="通用直播插件（业务无关，负责流管理、音视频管理、房间管理）" style="rounded=0;whiteSpace=wrap;html=1;fillColor=#FF9999;" vertex="1" parent="1">
          <mxGeometry x="752" y="390" width="100" height="70" as="geometry" />
        </mxCell>
        <mxCell id="J3t1SKIbdCMKoWFsVB5H-48" style="edgeStyle=orthogonalEdgeStyle;rounded=0;orthogonalLoop=1;jettySize=auto;html=1;exitX=0.5;exitY=1;exitDx=0;exitDy=0;entryX=0.5;entryY=0;entryDx=0;entryDy=0;" edge="1" parent="1" source="J3t1SKIbdCMKoWFsVB5H-47" target="J3t1SKIbdCMKoWFsVB5H-43">
          <mxGeometry relative="1" as="geometry" />
        </mxCell>
        <mxCell id="J3t1SKIbdCMKoWFsVB5H-51" style="edgeStyle=orthogonalEdgeStyle;rounded=0;orthogonalLoop=1;jettySize=auto;html=1;exitX=0.5;exitY=1;exitDx=0;exitDy=0;entryX=0.5;entryY=0;entryDx=0;entryDy=0;" edge="1" parent="1" source="J3t1SKIbdCMKoWFsVB5H-47" target="J3t1SKIbdCMKoWFsVB5H-49">
          <mxGeometry relative="1" as="geometry" />
        </mxCell>
        <mxCell id="J3t1SKIbdCMKoWFsVB5H-61" style="edgeStyle=orthogonalEdgeStyle;rounded=0;orthogonalLoop=1;jettySize=auto;html=1;exitX=0;exitY=0.5;exitDx=0;exitDy=0;entryX=0.75;entryY=0;entryDx=0;entryDy=0;" edge="1" parent="1" source="J3t1SKIbdCMKoWFsVB5H-47" target="J3t1SKIbdCMKoWFsVB5H-52">
          <mxGeometry relative="1" as="geometry">
            <Array as="points">
              <mxPoint x="650" y="305" />
              <mxPoint x="650" y="530" />
              <mxPoint x="445" y="530" />
            </Array>
          </mxGeometry>
        </mxCell>
        <mxCell id="J3t1SKIbdCMKoWFsVB5H-66" style="edgeStyle=orthogonalEdgeStyle;rounded=0;orthogonalLoop=1;jettySize=auto;html=1;exitX=1;exitY=0.5;exitDx=0;exitDy=0;entryX=0.25;entryY=0;entryDx=0;entryDy=0;" edge="1" parent="1" source="J3t1SKIbdCMKoWFsVB5H-47" target="J3t1SKIbdCMKoWFsVB5H-63">
          <mxGeometry relative="1" as="geometry">
            <Array as="points">
              <mxPoint x="1050" y="305" />
              <mxPoint x="1050" y="530" />
              <mxPoint x="1255" y="530" />
            </Array>
          </mxGeometry>
        </mxCell>
        <mxCell id="J3t1SKIbdCMKoWFsVB5H-47" value="小世界直播插件" style="rounded=0;whiteSpace=wrap;html=1;fillColor=#FF6666;" vertex="1" parent="1">
          <mxGeometry x="760" y="280" width="180" height="50" as="geometry" />
        </mxCell>
        <mxCell id="J3t1SKIbdCMKoWFsVB5H-49" value="其他Flutter组件" style="rounded=0;whiteSpace=wrap;html=1;" vertex="1" parent="1">
          <mxGeometry x="870" y="390" width="80" height="40" as="geometry" />
        </mxCell>
        <mxCell id="J3t1SKIbdCMKoWFsVB5H-59" style="edgeStyle=orthogonalEdgeStyle;rounded=0;orthogonalLoop=1;jettySize=auto;html=1;exitX=0.5;exitY=0;exitDx=0;exitDy=0;entryX=0.5;entryY=1;entryDx=0;entryDy=0;dashed=1;" edge="1" parent="1" source="J3t1SKIbdCMKoWFsVB5H-52" target="J3t1SKIbdCMKoWFsVB5H-53">
          <mxGeometry relative="1" as="geometry" />
        </mxCell>
        <mxCell id="J3t1SKIbdCMKoWFsVB5H-52" value="Flutter依赖Native的Channel层" style="rounded=0;whiteSpace=wrap;html=1;fillColor=#FFFFCC;" vertex="1" parent="1">
          <mxGeometry x="340" y="590" width="140" height="40" as="geometry" />
        </mxCell>
        <mxCell id="J3t1SKIbdCMKoWFsVB5H-53" value="Native接口" style="rounded=0;whiteSpace=wrap;html=1;" vertex="1" parent="1">
          <mxGeometry x="340" y="480" width="140" height="40" as="geometry" />
        </mxCell>
        <mxCell id="J3t1SKIbdCMKoWFsVB5H-55" value="回调" style="text;html=1;resizable=0;autosize=1;align=center;verticalAlign=middle;points=[];fillColor=none;strokeColor=none;rounded=0;" vertex="1" parent="1">
          <mxGeometry x="370" y="550" width="40" height="20" as="geometry" />
        </mxCell>
        <mxCell id="J3t1SKIbdCMKoWFsVB5H-62" style="edgeStyle=orthogonalEdgeStyle;rounded=0;orthogonalLoop=1;jettySize=auto;html=1;exitX=0.5;exitY=0;exitDx=0;exitDy=0;entryX=0.5;entryY=1;entryDx=0;entryDy=0;dashed=1;" edge="1" source="J3t1SKIbdCMKoWFsVB5H-63" target="J3t1SKIbdCMKoWFsVB5H-64" parent="1">
          <mxGeometry relative="1" as="geometry" />
        </mxCell>
        <mxCell id="J3t1SKIbdCMKoWFsVB5H-63" value="Flutter依赖Native的Channel层" style="rounded=0;whiteSpace=wrap;html=1;fillColor=#FFFFCC;" vertex="1" parent="1">
          <mxGeometry x="1220" y="590" width="140" height="40" as="geometry" />
        </mxCell>
        <mxCell id="J3t1SKIbdCMKoWFsVB5H-64" value="Native接口" style="rounded=0;whiteSpace=wrap;html=1;" vertex="1" parent="1">
          <mxGeometry x="1220" y="480" width="140" height="40" as="geometry" />
        </mxCell>
        <mxCell id="J3t1SKIbdCMKoWFsVB5H-65" value="回调" style="text;html=1;resizable=0;autosize=1;align=center;verticalAlign=middle;points=[];fillColor=none;strokeColor=none;rounded=0;" vertex="1" parent="1">
          <mxGeometry x="1290" y="550" width="40" height="20" as="geometry" />
        </mxCell>
      </root>
    </mxGraphModel>
  </diagram>
</mxfile>
